<mxfile host="app.diagrams.net" modified="2024-04-14T15:07:03.966Z" agent="Mozilla/5.0 (Windows NT 10.0; Win64; x64) AppleWebKit/537.36 (KHTML, like Gecko) Chrome/123.0.0.0 Safari/537.36" etag="LMOOjrPcwS_g-P-BJggB" version="24.2.5" type="github">
  <diagram name="Page-1" id="NYwyas8JEWSIGde-HI72">
    <mxGraphModel dx="1560" dy="958" grid="1" gridSize="10" guides="1" tooltips="1" connect="1" arrows="1" fold="1" page="1" pageScale="1" pageWidth="850" pageHeight="1100" math="0" shadow="0">
      <root>
        <mxCell id="0" />
        <mxCell id="1" parent="0" />
        <mxCell id="deqkE9E4SzqVFEYOaEAN-1" value="SalesPerson" style="whiteSpace=wrap;html=1;align=center;" vertex="1" parent="1">
          <mxGeometry x="184" y="150" width="100" height="40" as="geometry" />
        </mxCell>
        <mxCell id="deqkE9E4SzqVFEYOaEAN-3" value="manages" style="shape=rhombus;perimeter=rhombusPerimeter;whiteSpace=wrap;html=1;align=center;" vertex="1" parent="1">
          <mxGeometry x="359" y="50" width="90" height="80" as="geometry" />
        </mxCell>
        <mxCell id="deqkE9E4SzqVFEYOaEAN-12" value="" style="endArrow=none;html=1;rounded=0;entryX=0;entryY=0.5;entryDx=0;entryDy=0;exitX=0.5;exitY=0;exitDx=0;exitDy=0;" edge="1" parent="1" source="deqkE9E4SzqVFEYOaEAN-1" target="deqkE9E4SzqVFEYOaEAN-3">
          <mxGeometry relative="1" as="geometry">
            <mxPoint x="54" y="110" as="sourcePoint" />
            <mxPoint x="214" y="110" as="targetPoint" />
            <Array as="points">
              <mxPoint x="234" y="90" />
            </Array>
          </mxGeometry>
        </mxCell>
        <mxCell id="deqkE9E4SzqVFEYOaEAN-14" value="Name" style="ellipse;whiteSpace=wrap;html=1;align=center;" vertex="1" parent="1">
          <mxGeometry x="40" y="100" width="100" height="40" as="geometry" />
        </mxCell>
        <mxCell id="deqkE9E4SzqVFEYOaEAN-15" value="&lt;u&gt;Person_id&lt;/u&gt;" style="ellipse;whiteSpace=wrap;html=1;align=center;" vertex="1" parent="1">
          <mxGeometry x="40" y="150" width="100" height="40" as="geometry" />
        </mxCell>
        <mxCell id="deqkE9E4SzqVFEYOaEAN-16" value="Salary" style="ellipse;whiteSpace=wrap;html=1;align=center;" vertex="1" parent="1">
          <mxGeometry x="40" y="200" width="100" height="40" as="geometry" />
        </mxCell>
        <mxCell id="deqkE9E4SzqVFEYOaEAN-17" value="" style="endArrow=none;html=1;rounded=0;entryX=0;entryY=0.5;entryDx=0;entryDy=0;exitX=1;exitY=0.5;exitDx=0;exitDy=0;" edge="1" parent="1" source="deqkE9E4SzqVFEYOaEAN-14" target="deqkE9E4SzqVFEYOaEAN-1">
          <mxGeometry relative="1" as="geometry">
            <mxPoint x="74" y="100" as="sourcePoint" />
            <mxPoint x="234" y="100" as="targetPoint" />
          </mxGeometry>
        </mxCell>
        <mxCell id="deqkE9E4SzqVFEYOaEAN-18" value="" style="endArrow=none;html=1;rounded=0;entryX=0;entryY=0.5;entryDx=0;entryDy=0;exitX=1;exitY=0.5;exitDx=0;exitDy=0;" edge="1" parent="1" source="deqkE9E4SzqVFEYOaEAN-15" target="deqkE9E4SzqVFEYOaEAN-1">
          <mxGeometry relative="1" as="geometry">
            <mxPoint x="94" y="110" as="sourcePoint" />
            <mxPoint x="164" y="190" as="targetPoint" />
          </mxGeometry>
        </mxCell>
        <mxCell id="deqkE9E4SzqVFEYOaEAN-19" value="" style="endArrow=none;html=1;rounded=0;entryX=0;entryY=0.5;entryDx=0;entryDy=0;exitX=1;exitY=0.5;exitDx=0;exitDy=0;" edge="1" parent="1" source="deqkE9E4SzqVFEYOaEAN-16" target="deqkE9E4SzqVFEYOaEAN-1">
          <mxGeometry relative="1" as="geometry">
            <mxPoint x="124" y="180" as="sourcePoint" />
            <mxPoint x="194" y="180" as="targetPoint" />
          </mxGeometry>
        </mxCell>
        <mxCell id="deqkE9E4SzqVFEYOaEAN-23" value="agent to" style="shape=rhombus;perimeter=rhombusPerimeter;whiteSpace=wrap;html=1;align=center;" vertex="1" parent="1">
          <mxGeometry x="189" y="249" width="90" height="80" as="geometry" />
        </mxCell>
        <mxCell id="deqkE9E4SzqVFEYOaEAN-24" value="" style="endArrow=none;html=1;rounded=0;entryX=0.5;entryY=1;entryDx=0;entryDy=0;exitX=0.5;exitY=0;exitDx=0;exitDy=0;" edge="1" parent="1" source="deqkE9E4SzqVFEYOaEAN-23" target="deqkE9E4SzqVFEYOaEAN-1">
          <mxGeometry relative="1" as="geometry">
            <mxPoint x="94" y="310" as="sourcePoint" />
            <mxPoint x="244" y="240" as="targetPoint" />
          </mxGeometry>
        </mxCell>
        <mxCell id="deqkE9E4SzqVFEYOaEAN-25" value="Orders" style="whiteSpace=wrap;html=1;align=center;" vertex="1" parent="1">
          <mxGeometry x="184" y="650" width="100" height="40" as="geometry" />
        </mxCell>
        <mxCell id="deqkE9E4SzqVFEYOaEAN-26" value="" style="endArrow=none;html=1;rounded=0;entryX=0.5;entryY=1;entryDx=0;entryDy=0;exitX=0.5;exitY=0;exitDx=0;exitDy=0;" edge="1" parent="1" source="deqkE9E4SzqVFEYOaEAN-44" target="deqkE9E4SzqVFEYOaEAN-23">
          <mxGeometry relative="1" as="geometry">
            <mxPoint x="154" y="450" as="sourcePoint" />
            <mxPoint x="214" y="400" as="targetPoint" />
          </mxGeometry>
        </mxCell>
        <mxCell id="deqkE9E4SzqVFEYOaEAN-31" value="M" style="text;strokeColor=none;fillColor=none;spacingLeft=4;spacingRight=4;overflow=hidden;rotatable=0;points=[[0,0.5],[1,0.5]];portConstraint=eastwest;fontSize=14;whiteSpace=wrap;html=1;align=center;fontStyle=1;verticalAlign=middle;" vertex="1" parent="1">
          <mxGeometry x="234" y="330" width="40" height="30" as="geometry" />
        </mxCell>
        <mxCell id="deqkE9E4SzqVFEYOaEAN-33" value="" style="endArrow=none;html=1;rounded=0;entryX=0.5;entryY=1;entryDx=0;entryDy=0;exitX=1;exitY=0.5;exitDx=0;exitDy=0;" edge="1" parent="1" source="deqkE9E4SzqVFEYOaEAN-1" target="deqkE9E4SzqVFEYOaEAN-3">
          <mxGeometry relative="1" as="geometry">
            <mxPoint x="274" y="248" as="sourcePoint" />
            <mxPoint x="399" y="188" as="targetPoint" />
            <Array as="points">
              <mxPoint x="404" y="170" />
            </Array>
          </mxGeometry>
        </mxCell>
        <mxCell id="deqkE9E4SzqVFEYOaEAN-34" value="1" style="text;strokeColor=none;fillColor=none;spacingLeft=4;spacingRight=4;overflow=hidden;rotatable=0;points=[[0,0.5],[1,0.5]];portConstraint=eastwest;fontSize=14;whiteSpace=wrap;html=1;align=center;fontStyle=1;verticalAlign=middle;" vertex="1" parent="1">
          <mxGeometry x="319" y="90" width="40" height="30" as="geometry" />
        </mxCell>
        <mxCell id="deqkE9E4SzqVFEYOaEAN-37" value="&lt;u&gt;Item Code&lt;/u&gt;" style="ellipse;whiteSpace=wrap;html=1;align=center;" vertex="1" parent="1">
          <mxGeometry x="40" y="700" width="100" height="40" as="geometry" />
        </mxCell>
        <mxCell id="deqkE9E4SzqVFEYOaEAN-38" value="No. of Items" style="ellipse;whiteSpace=wrap;html=1;align=center;" vertex="1" parent="1">
          <mxGeometry x="40" y="650" width="100" height="40" as="geometry" />
        </mxCell>
        <mxCell id="deqkE9E4SzqVFEYOaEAN-39" value="Name" style="ellipse;whiteSpace=wrap;html=1;align=center;" vertex="1" parent="1">
          <mxGeometry x="40" y="390" width="100" height="40" as="geometry" />
        </mxCell>
        <mxCell id="deqkE9E4SzqVFEYOaEAN-40" value="Price" style="ellipse;whiteSpace=wrap;html=1;align=center;" vertex="1" parent="1">
          <mxGeometry x="40" y="600" width="100" height="40" as="geometry" />
        </mxCell>
        <mxCell id="deqkE9E4SzqVFEYOaEAN-41" value="" style="endArrow=none;html=1;rounded=0;entryX=0;entryY=0.5;entryDx=0;entryDy=0;exitX=1;exitY=0.5;exitDx=0;exitDy=0;" edge="1" parent="1" source="deqkE9E4SzqVFEYOaEAN-37" target="deqkE9E4SzqVFEYOaEAN-25">
          <mxGeometry relative="1" as="geometry">
            <mxPoint x="-86" y="580" as="sourcePoint" />
            <mxPoint x="364" y="930" as="targetPoint" />
          </mxGeometry>
        </mxCell>
        <mxCell id="deqkE9E4SzqVFEYOaEAN-42" value="" style="endArrow=none;html=1;rounded=0;exitX=1;exitY=0.5;exitDx=0;exitDy=0;entryX=0;entryY=0.5;entryDx=0;entryDy=0;" edge="1" parent="1" source="deqkE9E4SzqVFEYOaEAN-38" target="deqkE9E4SzqVFEYOaEAN-25">
          <mxGeometry relative="1" as="geometry">
            <mxPoint x="34" y="700" as="sourcePoint" />
            <mxPoint x="184" y="680" as="targetPoint" />
          </mxGeometry>
        </mxCell>
        <mxCell id="deqkE9E4SzqVFEYOaEAN-43" value="" style="endArrow=none;html=1;rounded=0;exitX=1;exitY=0.5;exitDx=0;exitDy=0;entryX=0;entryY=0.5;entryDx=0;entryDy=0;" edge="1" parent="1" source="deqkE9E4SzqVFEYOaEAN-40" target="deqkE9E4SzqVFEYOaEAN-25">
          <mxGeometry relative="1" as="geometry">
            <mxPoint x="244" y="780" as="sourcePoint" />
            <mxPoint x="284" y="750" as="targetPoint" />
          </mxGeometry>
        </mxCell>
        <mxCell id="deqkE9E4SzqVFEYOaEAN-44" value="Customer" style="whiteSpace=wrap;html=1;align=center;" vertex="1" parent="1">
          <mxGeometry x="184" y="390" width="100" height="40" as="geometry" />
        </mxCell>
        <mxCell id="deqkE9E4SzqVFEYOaEAN-45" value="place" style="shape=rhombus;perimeter=rhombusPerimeter;whiteSpace=wrap;html=1;align=center;" vertex="1" parent="1">
          <mxGeometry x="189" y="500" width="90" height="80" as="geometry" />
        </mxCell>
        <mxCell id="deqkE9E4SzqVFEYOaEAN-46" value="Address" style="ellipse;whiteSpace=wrap;html=1;align=center;" vertex="1" parent="1">
          <mxGeometry x="40" y="440" width="100" height="40" as="geometry" />
        </mxCell>
        <mxCell id="deqkE9E4SzqVFEYOaEAN-47" value="" style="endArrow=none;html=1;rounded=0;entryX=0;entryY=0.5;entryDx=0;entryDy=0;exitX=1;exitY=0.5;exitDx=0;exitDy=0;" edge="1" parent="1" source="deqkE9E4SzqVFEYOaEAN-39" target="deqkE9E4SzqVFEYOaEAN-44">
          <mxGeometry relative="1" as="geometry">
            <mxPoint x="164" y="570" as="sourcePoint" />
            <mxPoint x="324" y="570" as="targetPoint" />
          </mxGeometry>
        </mxCell>
        <mxCell id="deqkE9E4SzqVFEYOaEAN-48" value="" style="endArrow=none;html=1;rounded=0;entryX=0;entryY=0.5;entryDx=0;entryDy=0;exitX=1;exitY=0.5;exitDx=0;exitDy=0;" edge="1" parent="1" source="deqkE9E4SzqVFEYOaEAN-46" target="deqkE9E4SzqVFEYOaEAN-44">
          <mxGeometry relative="1" as="geometry">
            <mxPoint x="174" y="650" as="sourcePoint" />
            <mxPoint x="254" y="590" as="targetPoint" />
          </mxGeometry>
        </mxCell>
        <mxCell id="deqkE9E4SzqVFEYOaEAN-49" value="" style="endArrow=none;html=1;rounded=0;entryX=0.5;entryY=0;entryDx=0;entryDy=0;exitX=0.5;exitY=1;exitDx=0;exitDy=0;" edge="1" parent="1" source="deqkE9E4SzqVFEYOaEAN-44" target="deqkE9E4SzqVFEYOaEAN-45">
          <mxGeometry relative="1" as="geometry">
            <mxPoint x="164" y="570" as="sourcePoint" />
            <mxPoint x="324" y="570" as="targetPoint" />
          </mxGeometry>
        </mxCell>
        <mxCell id="deqkE9E4SzqVFEYOaEAN-51" value="" style="endArrow=none;html=1;rounded=0;entryX=0.5;entryY=0;entryDx=0;entryDy=0;exitX=0.5;exitY=1;exitDx=0;exitDy=0;" edge="1" parent="1" source="deqkE9E4SzqVFEYOaEAN-45" target="deqkE9E4SzqVFEYOaEAN-25">
          <mxGeometry relative="1" as="geometry">
            <mxPoint x="404" y="570" as="sourcePoint" />
            <mxPoint x="564" y="570" as="targetPoint" />
          </mxGeometry>
        </mxCell>
        <mxCell id="deqkE9E4SzqVFEYOaEAN-54" value="M" style="text;strokeColor=none;fillColor=none;spacingLeft=4;spacingRight=4;overflow=hidden;rotatable=0;points=[[0,0.5],[1,0.5]];portConstraint=eastwest;fontSize=14;whiteSpace=wrap;html=1;align=center;fontStyle=1;verticalAlign=middle;" vertex="1" parent="1">
          <mxGeometry x="234" y="580" width="40" height="30" as="geometry" />
        </mxCell>
        <mxCell id="deqkE9E4SzqVFEYOaEAN-56" value="1" style="text;strokeColor=none;fillColor=none;spacingLeft=4;spacingRight=4;overflow=hidden;rotatable=0;points=[[0,0.5],[1,0.5]];portConstraint=eastwest;fontSize=14;whiteSpace=wrap;html=1;align=center;fontStyle=1;verticalAlign=middle;" vertex="1" parent="1">
          <mxGeometry x="234" y="470" width="40" height="30" as="geometry" />
        </mxCell>
        <mxCell id="deqkE9E4SzqVFEYOaEAN-57" value="Inventory Items" style="whiteSpace=wrap;html=1;align=center;" vertex="1" parent="1">
          <mxGeometry x="520" y="650" width="100" height="40" as="geometry" />
        </mxCell>
        <mxCell id="deqkE9E4SzqVFEYOaEAN-58" value="listed" style="shape=rhombus;perimeter=rhombusPerimeter;whiteSpace=wrap;html=1;align=center;" vertex="1" parent="1">
          <mxGeometry x="346" y="630" width="90" height="80" as="geometry" />
        </mxCell>
        <mxCell id="deqkE9E4SzqVFEYOaEAN-60" value="" style="endArrow=none;html=1;rounded=0;entryX=0;entryY=0.5;entryDx=0;entryDy=0;exitX=1;exitY=0.5;exitDx=0;exitDy=0;" edge="1" parent="1" source="deqkE9E4SzqVFEYOaEAN-25" target="deqkE9E4SzqVFEYOaEAN-58">
          <mxGeometry relative="1" as="geometry">
            <mxPoint x="300" y="640" as="sourcePoint" />
            <mxPoint x="654" y="460" as="targetPoint" />
          </mxGeometry>
        </mxCell>
        <mxCell id="deqkE9E4SzqVFEYOaEAN-62" value="assembled to" style="shape=rhombus;perimeter=rhombusPerimeter;whiteSpace=wrap;html=1;align=center;" vertex="1" parent="1">
          <mxGeometry x="525" y="510" width="90" height="80" as="geometry" />
        </mxCell>
        <mxCell id="deqkE9E4SzqVFEYOaEAN-64" value="Parts" style="whiteSpace=wrap;html=1;align=center;" vertex="1" parent="1">
          <mxGeometry x="520" y="410" width="100" height="40" as="geometry" />
        </mxCell>
        <mxCell id="deqkE9E4SzqVFEYOaEAN-65" value="Employees" style="whiteSpace=wrap;html=1;align=center;" vertex="1" parent="1">
          <mxGeometry x="840" y="650" width="100" height="40" as="geometry" />
        </mxCell>
        <mxCell id="deqkE9E4SzqVFEYOaEAN-67" value="Supplier" style="whiteSpace=wrap;html=1;align=center;" vertex="1" parent="1">
          <mxGeometry x="520" y="160" width="100" height="40" as="geometry" />
        </mxCell>
        <mxCell id="deqkE9E4SzqVFEYOaEAN-70" value="" style="endArrow=none;html=1;rounded=0;exitX=0.5;exitY=0;exitDx=0;exitDy=0;entryX=0.5;entryY=1;entryDx=0;entryDy=0;" edge="1" parent="1" source="deqkE9E4SzqVFEYOaEAN-57" target="deqkE9E4SzqVFEYOaEAN-62">
          <mxGeometry relative="1" as="geometry">
            <mxPoint x="677.5699999999999" y="770" as="sourcePoint" />
            <mxPoint x="755" y="710" as="targetPoint" />
          </mxGeometry>
        </mxCell>
        <mxCell id="deqkE9E4SzqVFEYOaEAN-71" value="" style="endArrow=none;html=1;rounded=0;entryX=0.5;entryY=1;entryDx=0;entryDy=0;exitX=0.5;exitY=0;exitDx=0;exitDy=0;" edge="1" parent="1" source="deqkE9E4SzqVFEYOaEAN-62" target="deqkE9E4SzqVFEYOaEAN-64">
          <mxGeometry relative="1" as="geometry">
            <mxPoint x="550" y="480.0000000000001" as="sourcePoint" />
            <mxPoint x="873" y="630" as="targetPoint" />
          </mxGeometry>
        </mxCell>
        <mxCell id="deqkE9E4SzqVFEYOaEAN-68" value="M" style="text;strokeColor=none;fillColor=none;spacingLeft=4;spacingRight=4;overflow=hidden;rotatable=0;points=[[0,0.5],[1,0.5]];portConstraint=eastwest;fontSize=14;whiteSpace=wrap;html=1;align=center;fontStyle=1;verticalAlign=middle;" vertex="1" parent="1">
          <mxGeometry x="306" y="640" width="40" height="30" as="geometry" />
        </mxCell>
        <mxCell id="deqkE9E4SzqVFEYOaEAN-74" value="Date Purchase" style="ellipse;whiteSpace=wrap;html=1;align=center;" vertex="1" parent="1">
          <mxGeometry x="460" y="730" width="100" height="40" as="geometry" />
        </mxCell>
        <mxCell id="deqkE9E4SzqVFEYOaEAN-77" value="&lt;u&gt;Item Code&lt;/u&gt;" style="ellipse;whiteSpace=wrap;html=1;align=center;" vertex="1" parent="1">
          <mxGeometry x="520" y="790" width="100" height="40" as="geometry" />
        </mxCell>
        <mxCell id="deqkE9E4SzqVFEYOaEAN-78" value="No. Of Items" style="ellipse;whiteSpace=wrap;html=1;align=center;" vertex="1" parent="1">
          <mxGeometry x="580" y="730" width="100" height="40" as="geometry" />
        </mxCell>
        <mxCell id="deqkE9E4SzqVFEYOaEAN-80" value="" style="endArrow=none;html=1;rounded=0;exitX=0.5;exitY=1;exitDx=0;exitDy=0;entryX=0.5;entryY=0;entryDx=0;entryDy=0;" edge="1" parent="1" source="deqkE9E4SzqVFEYOaEAN-57" target="deqkE9E4SzqVFEYOaEAN-74">
          <mxGeometry relative="1" as="geometry">
            <mxPoint x="590" y="710" as="sourcePoint" />
            <mxPoint x="510" y="700" as="targetPoint" />
          </mxGeometry>
        </mxCell>
        <mxCell id="deqkE9E4SzqVFEYOaEAN-81" value="" style="endArrow=none;html=1;rounded=0;entryX=0.5;entryY=0;entryDx=0;entryDy=0;exitX=0.5;exitY=1;exitDx=0;exitDy=0;" edge="1" parent="1" source="deqkE9E4SzqVFEYOaEAN-57" target="deqkE9E4SzqVFEYOaEAN-77">
          <mxGeometry relative="1" as="geometry">
            <mxPoint x="654" y="680" as="sourcePoint" />
            <mxPoint x="714" y="630" as="targetPoint" />
          </mxGeometry>
        </mxCell>
        <mxCell id="deqkE9E4SzqVFEYOaEAN-82" value="" style="endArrow=none;html=1;rounded=0;entryX=0.5;entryY=0;entryDx=0;entryDy=0;exitX=0.5;exitY=1;exitDx=0;exitDy=0;" edge="1" parent="1" source="deqkE9E4SzqVFEYOaEAN-57" target="deqkE9E4SzqVFEYOaEAN-78">
          <mxGeometry relative="1" as="geometry">
            <mxPoint x="654" y="680" as="sourcePoint" />
            <mxPoint x="714" y="680" as="targetPoint" />
          </mxGeometry>
        </mxCell>
        <mxCell id="deqkE9E4SzqVFEYOaEAN-83" value="M" style="text;strokeColor=none;fillColor=none;spacingLeft=4;spacingRight=4;overflow=hidden;rotatable=0;points=[[0,0.5],[1,0.5]];portConstraint=eastwest;fontSize=14;whiteSpace=wrap;html=1;align=center;fontStyle=1;verticalAlign=middle;" vertex="1" parent="1">
          <mxGeometry x="530" y="590" width="40" height="30" as="geometry" />
        </mxCell>
        <mxCell id="deqkE9E4SzqVFEYOaEAN-69" value="M" style="text;strokeColor=none;fillColor=none;spacingLeft=4;spacingRight=4;overflow=hidden;rotatable=0;points=[[0,0.5],[1,0.5]];portConstraint=eastwest;fontSize=14;whiteSpace=wrap;html=1;align=center;fontStyle=1;verticalAlign=middle;" vertex="1" parent="1">
          <mxGeometry x="436" y="640" width="40" height="30" as="geometry" />
        </mxCell>
        <mxCell id="deqkE9E4SzqVFEYOaEAN-87" value="" style="endArrow=none;html=1;rounded=0;entryX=0;entryY=0.5;entryDx=0;entryDy=0;exitX=1;exitY=0.5;exitDx=0;exitDy=0;" edge="1" parent="1" source="deqkE9E4SzqVFEYOaEAN-58" target="deqkE9E4SzqVFEYOaEAN-57">
          <mxGeometry relative="1" as="geometry">
            <mxPoint x="364" y="739.05" as="sourcePoint" />
            <mxPoint x="454" y="739.05" as="targetPoint" />
          </mxGeometry>
        </mxCell>
        <mxCell id="deqkE9E4SzqVFEYOaEAN-88" value="1" style="text;strokeColor=none;fillColor=none;spacingLeft=4;spacingRight=4;overflow=hidden;rotatable=0;points=[[0,0.5],[1,0.5]];portConstraint=eastwest;fontSize=14;whiteSpace=wrap;html=1;align=center;fontStyle=1;verticalAlign=middle;" vertex="1" parent="1">
          <mxGeometry x="234" y="219" width="40" height="30" as="geometry" />
        </mxCell>
        <mxCell id="deqkE9E4SzqVFEYOaEAN-106" value="M" style="text;strokeColor=none;fillColor=none;spacingLeft=4;spacingRight=4;overflow=hidden;rotatable=0;points=[[0,0.5],[1,0.5]];portConstraint=eastwest;fontSize=14;whiteSpace=wrap;html=1;align=center;fontStyle=1;verticalAlign=middle;" vertex="1" parent="1">
          <mxGeometry x="525" y="480" width="40" height="30" as="geometry" />
        </mxCell>
        <mxCell id="deqkE9E4SzqVFEYOaEAN-108" value="assembled by" style="shape=rhombus;perimeter=rhombusPerimeter;whiteSpace=wrap;html=1;align=center;" vertex="1" parent="1">
          <mxGeometry x="690" y="630" width="90" height="80" as="geometry" />
        </mxCell>
        <mxCell id="deqkE9E4SzqVFEYOaEAN-109" value="" style="endArrow=none;html=1;rounded=0;entryX=0;entryY=0.5;entryDx=0;entryDy=0;exitX=1;exitY=0.5;exitDx=0;exitDy=0;" edge="1" parent="1" source="deqkE9E4SzqVFEYOaEAN-108" target="deqkE9E4SzqVFEYOaEAN-65">
          <mxGeometry relative="1" as="geometry">
            <mxPoint x="850" y="490" as="sourcePoint" />
            <mxPoint x="1010" y="490" as="targetPoint" />
          </mxGeometry>
        </mxCell>
        <mxCell id="deqkE9E4SzqVFEYOaEAN-110" value="" style="endArrow=none;html=1;rounded=0;entryX=1;entryY=0.5;entryDx=0;entryDy=0;exitX=0;exitY=0.5;exitDx=0;exitDy=0;" edge="1" parent="1" source="deqkE9E4SzqVFEYOaEAN-108" target="deqkE9E4SzqVFEYOaEAN-57">
          <mxGeometry relative="1" as="geometry">
            <mxPoint x="690" y="643.92" as="sourcePoint" />
            <mxPoint x="641.3399999999999" y="620" as="targetPoint" />
          </mxGeometry>
        </mxCell>
        <mxCell id="deqkE9E4SzqVFEYOaEAN-111" value="M" style="text;strokeColor=none;fillColor=none;spacingLeft=4;spacingRight=4;overflow=hidden;rotatable=0;points=[[0,0.5],[1,0.5]];portConstraint=eastwest;fontSize=14;whiteSpace=wrap;html=1;align=center;fontStyle=1;verticalAlign=middle;" vertex="1" parent="1">
          <mxGeometry x="780" y="640" width="40" height="30" as="geometry" />
        </mxCell>
        <mxCell id="deqkE9E4SzqVFEYOaEAN-112" value="M" style="text;strokeColor=none;fillColor=none;spacingLeft=4;spacingRight=4;overflow=hidden;rotatable=0;points=[[0,0.5],[1,0.5]];portConstraint=eastwest;fontSize=14;whiteSpace=wrap;html=1;align=center;fontStyle=1;verticalAlign=middle;" vertex="1" parent="1">
          <mxGeometry x="650" y="640" width="40" height="30" as="geometry" />
        </mxCell>
        <mxCell id="deqkE9E4SzqVFEYOaEAN-113" value="Supplies" style="shape=rhombus;perimeter=rhombusPerimeter;whiteSpace=wrap;html=1;align=center;" vertex="1" parent="1">
          <mxGeometry x="525" y="260" width="90" height="80" as="geometry" />
        </mxCell>
        <mxCell id="deqkE9E4SzqVFEYOaEAN-114" value="" style="endArrow=none;html=1;rounded=0;exitX=0.5;exitY=0;exitDx=0;exitDy=0;entryX=0.5;entryY=1;entryDx=0;entryDy=0;" edge="1" parent="1" source="deqkE9E4SzqVFEYOaEAN-64" target="deqkE9E4SzqVFEYOaEAN-113">
          <mxGeometry relative="1" as="geometry">
            <mxPoint x="670" y="250" as="sourcePoint" />
            <mxPoint x="510" y="360" as="targetPoint" />
          </mxGeometry>
        </mxCell>
        <mxCell id="deqkE9E4SzqVFEYOaEAN-115" value="" style="endArrow=none;html=1;rounded=0;exitX=0.5;exitY=0;exitDx=0;exitDy=0;entryX=0.5;entryY=1;entryDx=0;entryDy=0;" edge="1" parent="1" source="deqkE9E4SzqVFEYOaEAN-113" target="deqkE9E4SzqVFEYOaEAN-67">
          <mxGeometry relative="1" as="geometry">
            <mxPoint x="600" y="280" as="sourcePoint" />
            <mxPoint x="760" y="280" as="targetPoint" />
          </mxGeometry>
        </mxCell>
        <mxCell id="deqkE9E4SzqVFEYOaEAN-116" value="M" style="text;strokeColor=none;fillColor=none;spacingLeft=4;spacingRight=4;overflow=hidden;rotatable=0;points=[[0,0.5],[1,0.5]];portConstraint=eastwest;fontSize=14;whiteSpace=wrap;html=1;align=center;fontStyle=1;verticalAlign=middle;" vertex="1" parent="1">
          <mxGeometry x="525" y="230" width="40" height="30" as="geometry" />
        </mxCell>
        <mxCell id="deqkE9E4SzqVFEYOaEAN-117" value="M" style="text;strokeColor=none;fillColor=none;spacingLeft=4;spacingRight=4;overflow=hidden;rotatable=0;points=[[0,0.5],[1,0.5]];portConstraint=eastwest;fontSize=14;whiteSpace=wrap;html=1;align=center;fontStyle=1;verticalAlign=middle;" vertex="1" parent="1">
          <mxGeometry x="540" y="350" width="40" height="30" as="geometry" />
        </mxCell>
        <mxCell id="deqkE9E4SzqVFEYOaEAN-118" value="&lt;u&gt;Cus_ID&lt;/u&gt;" style="ellipse;whiteSpace=wrap;html=1;align=center;" vertex="1" parent="1">
          <mxGeometry x="40" y="340" width="100" height="40" as="geometry" />
        </mxCell>
        <mxCell id="deqkE9E4SzqVFEYOaEAN-119" value="" style="endArrow=none;html=1;rounded=0;exitX=1;exitY=0.5;exitDx=0;exitDy=0;entryX=0;entryY=0.5;entryDx=0;entryDy=0;" edge="1" parent="1" source="deqkE9E4SzqVFEYOaEAN-118" target="deqkE9E4SzqVFEYOaEAN-44">
          <mxGeometry relative="1" as="geometry">
            <mxPoint x="210" y="260" as="sourcePoint" />
            <mxPoint x="180" y="360" as="targetPoint" />
          </mxGeometry>
        </mxCell>
        <mxCell id="deqkE9E4SzqVFEYOaEAN-120" value="Emp_id" style="ellipse;whiteSpace=wrap;html=1;align=center;fontStyle=4;" vertex="1" parent="1">
          <mxGeometry x="1000" y="600" width="100" height="40" as="geometry" />
        </mxCell>
        <mxCell id="deqkE9E4SzqVFEYOaEAN-121" value="Name" style="ellipse;whiteSpace=wrap;html=1;align=center;" vertex="1" parent="1">
          <mxGeometry x="1000" y="650" width="100" height="40" as="geometry" />
        </mxCell>
        <mxCell id="deqkE9E4SzqVFEYOaEAN-122" value="Salary" style="ellipse;whiteSpace=wrap;html=1;align=center;" vertex="1" parent="1">
          <mxGeometry x="1000" y="700" width="100" height="40" as="geometry" />
        </mxCell>
        <mxCell id="deqkE9E4SzqVFEYOaEAN-123" value="" style="endArrow=none;html=1;rounded=0;entryX=0;entryY=0.5;entryDx=0;entryDy=0;exitX=1;exitY=0.5;exitDx=0;exitDy=0;" edge="1" parent="1" source="deqkE9E4SzqVFEYOaEAN-65" target="deqkE9E4SzqVFEYOaEAN-120">
          <mxGeometry relative="1" as="geometry">
            <mxPoint x="860" y="590" as="sourcePoint" />
            <mxPoint x="1020" y="590" as="targetPoint" />
          </mxGeometry>
        </mxCell>
        <mxCell id="deqkE9E4SzqVFEYOaEAN-124" value="" style="endArrow=none;html=1;rounded=0;entryX=0;entryY=0.5;entryDx=0;entryDy=0;exitX=1;exitY=0.5;exitDx=0;exitDy=0;" edge="1" parent="1" source="deqkE9E4SzqVFEYOaEAN-65" target="deqkE9E4SzqVFEYOaEAN-121">
          <mxGeometry relative="1" as="geometry">
            <mxPoint x="950" y="680" as="sourcePoint" />
            <mxPoint x="1010" y="630" as="targetPoint" />
          </mxGeometry>
        </mxCell>
        <mxCell id="deqkE9E4SzqVFEYOaEAN-125" value="" style="endArrow=none;html=1;rounded=0;entryX=0;entryY=0.5;entryDx=0;entryDy=0;exitX=1;exitY=0.5;exitDx=0;exitDy=0;" edge="1" parent="1" source="deqkE9E4SzqVFEYOaEAN-65" target="deqkE9E4SzqVFEYOaEAN-122">
          <mxGeometry relative="1" as="geometry">
            <mxPoint x="920" y="729.43" as="sourcePoint" />
            <mxPoint x="980" y="729.43" as="targetPoint" />
          </mxGeometry>
        </mxCell>
        <mxCell id="deqkE9E4SzqVFEYOaEAN-127" value="Name" style="ellipse;whiteSpace=wrap;html=1;align=center;" vertex="1" parent="1">
          <mxGeometry x="685" y="410" width="100" height="40" as="geometry" />
        </mxCell>
        <mxCell id="deqkE9E4SzqVFEYOaEAN-128" value="Parts_code" style="ellipse;whiteSpace=wrap;html=1;align=center;fontStyle=4" vertex="1" parent="1">
          <mxGeometry x="685" y="360" width="100" height="40" as="geometry" />
        </mxCell>
        <mxCell id="deqkE9E4SzqVFEYOaEAN-131" value="" style="endArrow=none;html=1;rounded=0;exitX=1;exitY=0.5;exitDx=0;exitDy=0;entryX=0;entryY=0.5;entryDx=0;entryDy=0;" edge="1" parent="1" source="deqkE9E4SzqVFEYOaEAN-64" target="deqkE9E4SzqVFEYOaEAN-128">
          <mxGeometry relative="1" as="geometry">
            <mxPoint x="710" y="350" as="sourcePoint" />
            <mxPoint x="870" y="350" as="targetPoint" />
          </mxGeometry>
        </mxCell>
        <mxCell id="deqkE9E4SzqVFEYOaEAN-132" value="" style="endArrow=none;html=1;rounded=0;exitX=1;exitY=0.5;exitDx=0;exitDy=0;entryX=0;entryY=0.5;entryDx=0;entryDy=0;" edge="1" parent="1" source="deqkE9E4SzqVFEYOaEAN-64" target="deqkE9E4SzqVFEYOaEAN-127">
          <mxGeometry relative="1" as="geometry">
            <mxPoint x="630" y="440" as="sourcePoint" />
            <mxPoint x="720" y="400" as="targetPoint" />
          </mxGeometry>
        </mxCell>
        <mxCell id="deqkE9E4SzqVFEYOaEAN-133" value="" style="endArrow=none;html=1;rounded=0;exitX=1;exitY=0.5;exitDx=0;exitDy=0;entryX=-0.002;entryY=0.396;entryDx=0;entryDy=0;entryPerimeter=0;" edge="1" parent="1" source="deqkE9E4SzqVFEYOaEAN-64" target="deqkE9E4SzqVFEYOaEAN-141">
          <mxGeometry relative="1" as="geometry">
            <mxPoint x="615" y="470" as="sourcePoint" />
            <mxPoint x="650" y="500" as="targetPoint" />
          </mxGeometry>
        </mxCell>
        <mxCell id="deqkE9E4SzqVFEYOaEAN-134" value="Supplier_id" style="ellipse;whiteSpace=wrap;html=1;align=center;fontStyle=4" vertex="1" parent="1">
          <mxGeometry x="685" y="109" width="100" height="40" as="geometry" />
        </mxCell>
        <mxCell id="deqkE9E4SzqVFEYOaEAN-135" value="Name" style="ellipse;whiteSpace=wrap;html=1;align=center;" vertex="1" parent="1">
          <mxGeometry x="685" y="159" width="100" height="40" as="geometry" />
        </mxCell>
        <mxCell id="deqkE9E4SzqVFEYOaEAN-136" value="Contact No." style="ellipse;whiteSpace=wrap;html=1;align=center;" vertex="1" parent="1">
          <mxGeometry x="685" y="209" width="100" height="40" as="geometry" />
        </mxCell>
        <mxCell id="deqkE9E4SzqVFEYOaEAN-138" value="" style="endArrow=none;html=1;rounded=0;entryX=-0.006;entryY=0.644;entryDx=0;entryDy=0;entryPerimeter=0;exitX=1;exitY=0.5;exitDx=0;exitDy=0;" edge="1" parent="1" source="deqkE9E4SzqVFEYOaEAN-67" target="deqkE9E4SzqVFEYOaEAN-134">
          <mxGeometry relative="1" as="geometry">
            <mxPoint x="450" y="240" as="sourcePoint" />
            <mxPoint x="610" y="240" as="targetPoint" />
          </mxGeometry>
        </mxCell>
        <mxCell id="deqkE9E4SzqVFEYOaEAN-139" value="" style="endArrow=none;html=1;rounded=0;entryX=0;entryY=0.5;entryDx=0;entryDy=0;exitX=1;exitY=0.5;exitDx=0;exitDy=0;" edge="1" parent="1" source="deqkE9E4SzqVFEYOaEAN-67" target="deqkE9E4SzqVFEYOaEAN-135">
          <mxGeometry relative="1" as="geometry">
            <mxPoint x="598" y="261" as="sourcePoint" />
            <mxPoint x="662" y="207" as="targetPoint" />
          </mxGeometry>
        </mxCell>
        <mxCell id="deqkE9E4SzqVFEYOaEAN-140" value="" style="endArrow=none;html=1;rounded=0;entryX=0;entryY=0.5;entryDx=0;entryDy=0;exitX=1;exitY=0.5;exitDx=0;exitDy=0;" edge="1" parent="1" source="deqkE9E4SzqVFEYOaEAN-67" target="deqkE9E4SzqVFEYOaEAN-136">
          <mxGeometry relative="1" as="geometry">
            <mxPoint x="630" y="210" as="sourcePoint" />
            <mxPoint x="662.5" y="239" as="targetPoint" />
          </mxGeometry>
        </mxCell>
        <mxCell id="deqkE9E4SzqVFEYOaEAN-141" value="Date Received" style="ellipse;whiteSpace=wrap;html=1;align=center;" vertex="1" parent="1">
          <mxGeometry x="687" y="460" width="100" height="40" as="geometry" />
        </mxCell>
        <mxCell id="deqkE9E4SzqVFEYOaEAN-142" value="M" style="text;strokeColor=none;fillColor=none;spacingLeft=4;spacingRight=4;overflow=hidden;rotatable=0;points=[[0,0.5],[1,0.5]];portConstraint=eastwest;fontSize=14;whiteSpace=wrap;html=1;align=center;fontStyle=1;verticalAlign=middle;" vertex="1" parent="1">
          <mxGeometry x="363" y="140" width="40" height="30" as="geometry" />
        </mxCell>
        <mxCell id="deqkE9E4SzqVFEYOaEAN-148" value="" style="group" vertex="1" connectable="0" parent="1">
          <mxGeometry x="299" y="360" width="217" height="90" as="geometry" />
        </mxCell>
        <mxCell id="deqkE9E4SzqVFEYOaEAN-145" value="&lt;font style=&quot;font-size: 16px;&quot;&gt;&lt;b&gt;Gula, Charles Laurence A.&lt;/b&gt;&lt;/font&gt;" style="text;strokeColor=none;fillColor=none;spacingLeft=4;spacingRight=4;overflow=hidden;rotatable=0;points=[[0,0.5],[1,0.5]];portConstraint=eastwest;fontSize=12;whiteSpace=wrap;html=1;" vertex="1" parent="deqkE9E4SzqVFEYOaEAN-148">
          <mxGeometry width="210" height="30" as="geometry" />
        </mxCell>
        <mxCell id="deqkE9E4SzqVFEYOaEAN-146" value="&lt;font style=&quot;font-size: 16px;&quot;&gt;Information Management&lt;/font&gt;" style="text;strokeColor=none;fillColor=none;spacingLeft=4;spacingRight=4;overflow=hidden;rotatable=0;points=[[0,0.5],[1,0.5]];portConstraint=eastwest;fontSize=12;whiteSpace=wrap;html=1;align=center;" vertex="1" parent="deqkE9E4SzqVFEYOaEAN-148">
          <mxGeometry y="30" width="210" height="30" as="geometry" />
        </mxCell>
        <mxCell id="deqkE9E4SzqVFEYOaEAN-147" value="&lt;font style=&quot;font-size: 16px;&quot;&gt;Entity Relational Model&lt;/font&gt;" style="text;strokeColor=none;fillColor=none;spacingLeft=4;spacingRight=4;overflow=hidden;rotatable=0;points=[[0,0.5],[1,0.5]];portConstraint=eastwest;fontSize=12;whiteSpace=wrap;html=1;align=center;" vertex="1" parent="deqkE9E4SzqVFEYOaEAN-148">
          <mxGeometry x="7" y="60" width="210" height="30" as="geometry" />
        </mxCell>
      </root>
    </mxGraphModel>
  </diagram>
</mxfile>
